<?xml version="1.0" encoding="utf-8"?>
<!-- Generator: Adobe Illustrator 16.0.0, SVG Export Plug-In . SVG Version: 6.00 Build 0)  -->
<!DOCTYPE svg PUBLIC "-//W3C//DTD SVG 1.1//EN" "http://www.w3.org/Graphics/SVG/1.1/DTD/svg11.dtd">
<svg version="1.1" id="Layer_1" xmlns="http://www.w3.org/2000/svg" xmlns:xlink="http://www.w3.org/1999/xlink" x="0px" y="0px"
	 width="700px" height="700px" viewBox="0 0 700 700" enable-background="new 0 0 700 700" xml:space="preserve">
<line fill="none" stroke="#000000" stroke-width="0.25" stroke-miterlimit="10" x1="20" y1="20" x2="20" y2="680"/>
<line fill="none" stroke="#000000" stroke-width="0.25" stroke-miterlimit="10" x1="140" y1="20" x2="140" y2="680"/>
<line fill="none" stroke="#000000" stroke-width="0.25" stroke-miterlimit="10" x1="350" y1="20" x2="350" y2="680"/>
<line fill="none" stroke="#000000" stroke-width="0.25" stroke-miterlimit="10" x1="560" y1="680" x2="560" y2="20"/>
<line fill="none" stroke="#000000" stroke-width="0.25" stroke-miterlimit="10" x1="680" y1="680" x2="680" y2="20"/>
<line fill="none" stroke="#000000" stroke-width="0.25" stroke-miterlimit="10" x1="620" y1="20" x2="620" y2="680"/>
<line fill="none" stroke="#000000" stroke-width="0.25" stroke-miterlimit="10" x1="80" y1="20" x2="80" y2="680"/>
<line fill="none" stroke="#000000" stroke-width="0.25" stroke-miterlimit="10" x1="20" y1="680" x2="680" y2="680"/>
<line fill="none" stroke="#000000" stroke-width="0.25" stroke-miterlimit="10" x1="680" y1="620" x2="20" y2="620"/>
<line fill="none" stroke="#000000" stroke-width="0.25" stroke-miterlimit="10" x1="20" y1="560" x2="680" y2="560"/>
<line fill="none" stroke="#000000" stroke-width="0.25" stroke-miterlimit="10" x1="20" y1="350" x2="680" y2="350"/>
<line fill="none" stroke="#000000" stroke-width="0.25" stroke-miterlimit="10" x1="680" y1="140" x2="20" y2="140"/>
<line fill="none" stroke="#000000" stroke-width="0.25" stroke-miterlimit="10" x1="680" y1="20" x2="20" y2="20"/>
<line fill="none" stroke="#000000" stroke-width="0.25" stroke-miterlimit="10" x1="20" y1="80" x2="680" y2="80"/>
<line fill="none" stroke="#000000" stroke-width="0.25" stroke-miterlimit="10" x1="680" y1="20" x2="20" y2="680"/>
<line fill="none" stroke="#000000" stroke-width="0.25" stroke-miterlimit="10" x1="20" y1="20" x2="680" y2="680"/>
<circle fill="none" stroke="#000000" stroke-width="0.25" stroke-miterlimit="10" cx="350" cy="350" r="210"/>
</svg>
